<?xml version="1.0" encoding="UTF-8" standalone="no"?>
<!DOCTYPE svg PUBLIC "-//W3C//DTD SVG 1.1//EN" "http://www.w3.org/Graphics/SVG/1.1/DTD/svg11.dtd">
<svg width="100%" height="100%" viewBox="0 0 512 512" version="1.1" xmlns="http://www.w3.org/2000/svg" xmlns:xlink="http://www.w3.org/1999/xlink" xml:space="preserve" xmlns:serif="http://www.serif.com/" style="fill-rule:evenodd;clip-rule:evenodd;stroke-linejoin:round;stroke-miterlimit:2;">
    <g transform="matrix(0.707107,-0.707107,0.707107,0.707107,-106.039,256)">
        <g transform="matrix(1.47366,0,0,1.3701,-122.06,-110.418)">
            <path d="M266.144,376.919L130.329,376.919C110.104,376.919 93.685,359.259 93.685,337.506L93.685,197.371C93.685,175.618 110.104,157.957 130.329,157.957L266.144,157.957C269.22,165.067 275.922,170 283.688,170C291.453,170 298.156,165.067 301.232,157.957L382.761,157.957C402.985,157.957 419.404,175.618 419.404,197.371L419.404,337.506C419.404,359.259 402.985,376.919 382.761,376.919L301.232,376.919C298.156,369.81 291.453,364.876 283.688,364.876C275.922,364.876 269.22,369.81 266.144,376.919ZM283.688,246.637C273.014,246.637 264.348,255.958 264.348,267.438C264.348,278.919 273.014,288.24 283.688,288.24C294.362,288.24 303.028,278.919 303.028,267.438C303.028,255.958 294.362,246.637 283.688,246.637ZM283.688,305.757C273.014,305.757 264.348,315.077 264.348,326.558C264.348,338.039 273.014,347.359 283.688,347.359C294.362,347.359 303.028,338.039 303.028,326.558C303.028,315.077 294.362,305.757 283.688,305.757ZM283.688,187.517C273.014,187.517 264.348,196.838 264.348,208.319C264.348,219.799 273.014,229.12 283.688,229.12C294.362,229.12 303.028,219.799 303.028,208.319C303.028,196.838 294.362,187.517 283.688,187.517Z" style="fill:rgb(243,148,0);"/>
        </g>
        <g transform="matrix(0.521922,0,0,0.13701,11.1037,138.358)">
            <path d="M419.404,267.438C419.404,327.862 406.526,376.919 390.664,376.919L122.425,376.919C106.563,376.919 93.685,327.862 93.685,267.438C93.685,207.014 106.563,157.957 122.425,157.957L390.664,157.957C406.526,157.957 419.404,207.014 419.404,267.438Z" style="fill:rgb(13,13,13);"/>
        </g>
        <g transform="matrix(0.521922,0,0,0.13701,11.1037,199.358)">
            <path d="M419.404,267.438C419.404,327.862 406.526,376.919 390.664,376.919L122.425,376.919C106.563,376.919 93.685,327.862 93.685,267.438C93.685,207.014 106.563,157.957 122.425,157.957L390.664,157.957C406.526,157.957 419.404,207.014 419.404,267.438Z" style="fill:rgb(13,13,13);"/>
        </g>
        <g transform="matrix(0.337714,0,0,0.13701,28.3612,260.358)">
            <path d="M419.404,267.438C419.404,327.862 399.502,376.919 374.988,376.919L138.101,376.919C113.587,376.919 93.685,327.862 93.685,267.438C93.685,207.014 113.587,157.957 138.101,157.957L374.988,157.957C399.502,157.957 419.404,207.014 419.404,267.438Z" style="fill:rgb(13,13,13);"/>
        </g>
        <g transform="matrix(3.66153e-17,1,-1,1.86398e-16,634.241,-255.536)">
            <g transform="matrix(144,0,0,144,597.95,270.839)">
            </g>
            <text x="425.122px" y="270.839px" style="font-family:'CourierNewPS-BoldMT', 'Courier New', monospace;font-weight:700;font-size:144px;fill:rgb(13,13,13);">TP</text>
        </g>
    </g>
</svg>
